<svg version="1.1" id="Layer_1" xmlns="http://www.w3.org/2000/svg" xmlns:xlink="http://www.w3.org/1999/xlink" x="0px" y="0px"
	 width="100%" viewBox="0 0 668 118" enable-background="new 0 0 668 118" xml:space="preserve">
<path fill="#F6F6F5" opacity="1.000000" stroke="none" 
	d="
M642.000000,119.000000 
	C428.000061,119.000000 214.500122,119.000000 1.000143,119.000000 
	C1.000095,79.666740 1.000095,40.333485 1.000048,1.000170 
	C223.666519,1.000113 446.333038,1.000113 668.999634,1.000057 
	C668.999756,40.333179 668.999756,79.666359 668.999878,118.999771 
	C660.166687,119.000000 651.333313,119.000000 642.000000,119.000000 
M175.052536,79.501350 
	C183.131927,87.385056 192.620438,89.053673 202.749176,84.692619 
	C208.262665,82.318718 212.296646,77.861786 213.799164,70.157860 
	C209.947937,71.082001 206.706604,71.372795 203.927277,72.660652 
	C201.019485,74.008041 198.769821,76.786598 195.855164,78.106216 
	C188.902069,81.254265 178.838486,74.470108 179.178482,66.617218 
	C180.952118,66.617218 182.752121,66.613365 184.552094,66.617867 
	C193.216766,66.639526 201.882706,66.586708 210.545456,66.727669 
	C213.627914,66.777832 214.976761,65.881844 215.132019,62.511806 
	C215.555176,53.327641 211.614761,45.878098 204.228012,41.645805 
	C196.231857,37.064365 187.073471,36.898113 178.850357,42.388939 
	C166.827271,50.417099 164.909943,67.517036 175.052536,79.501350 
M433.134064,44.315914 
	C423.724731,35.901081 413.739410,37.671417 403.651215,42.863483 
	C402.081238,38.462330 401.727692,38.333321 395.133911,39.626808 
	C395.133911,60.652496 395.133911,81.698807 395.133911,102.733459 
	C397.839722,102.733459 400.225250,102.733459 403.078430,102.733459 
	C403.078430,95.941940 403.078430,89.535027 403.078430,81.909790 
	C417.897552,90.381065 430.582581,88.669556 438.314270,73.907845 
	C443.333740,64.324448 442.515808,53.643776 433.134064,44.315914 
M158.829422,70.479340 
	C158.840485,65.980797 159.069168,61.470123 158.819138,56.986145 
	C158.225601,46.342533 149.611389,37.231812 139.017593,39.272789 
	C134.295425,40.182560 130.057434,43.605427 125.416107,45.981682 
	C117.037231,37.674339 114.115372,37.229153 102.415253,42.377914 
	C101.469482,42.794106 99.878624,41.987717 98.677254,41.519314 
	C97.108299,40.907585 94.608505,39.133316 94.287155,39.484795 
	C92.878471,41.025532 91.291710,43.134041 91.246857,45.070835 
	C90.984596,56.394253 91.167480,67.727394 91.130730,79.057014 
	C91.121071,82.034492 91.977554,84.927788 95.171928,84.554855 
	C96.589546,84.389359 98.565269,81.088493 98.682617,79.115379 
	C99.117119,71.809242 98.831009,64.462738 98.915054,57.132538 
	C98.990944,50.515110 103.898712,45.334003 110.190628,45.070236 
	C115.596649,44.843609 120.994987,50.621662 121.088905,56.957066 
	C121.197563,64.286469 121.147888,71.618515 121.131081,78.949333 
	C121.124619,81.767120 121.325165,84.729362 124.909454,84.808075 
	C128.504791,84.887039 128.865753,82.000000 128.860382,79.132278 
	C128.846024,71.468132 128.808746,63.802586 128.949600,56.140701 
	C128.981461,54.408195 129.280899,52.419754 130.182022,51.013676 
	C132.740936,47.020889 139.331512,44.103920 142.530472,45.394810 
	C147.893539,47.558971 151.415543,52.005283 151.203522,57.344727 
	C150.899673,64.996468 150.953323,72.678444 151.304108,80.326881 
	C151.376053,81.895546 153.430893,83.373260 154.571716,84.892899 
	C155.989258,83.416443 158.225662,82.137177 158.639435,80.418983 
	C159.322189,77.583984 158.827454,74.465424 158.829422,70.479340 
M342.327026,48.962341 
	C336.343445,57.486557 338.184021,71.751808 344.059387,78.590775 
	C351.187195,86.887566 365.011658,90.001083 375.221313,83.077110 
	C379.395081,80.246536 382.295624,76.550522 383.288849,71.389061 
	C378.595459,70.420441 374.943726,70.549217 372.176147,74.769989 
	C371.086365,76.431999 368.679321,77.353065 366.721771,78.301201 
	C359.762146,81.672134 348.749847,74.618118 349.113159,66.479668 
	C350.872498,66.479668 352.662903,66.478531 354.453308,66.479851 
	C363.105255,66.486198 371.762238,66.645111 380.404572,66.360237 
	C381.963806,66.308846 384.864014,64.254745 384.758636,63.430351 
	C384.151611,58.682133 383.717407,53.567162 381.583038,49.421658 
	C374.365265,35.402657 351.161438,34.808788 342.327026,48.962341 
M467.822235,86.920334 
	C489.380951,88.687111 498.443604,67.957176 492.274048,52.398876 
	C488.011444,41.649529 480.667175,37.653412 465.723358,38.975082 
	C457.717865,39.683113 451.401367,46.593189 448.700806,56.258709 
	C444.397491,71.660599 454.580627,84.411934 467.822235,86.920334 
M622.777344,73.012070 
	C622.965271,71.698334 622.878845,70.266510 623.385254,69.089851 
	C626.904602,60.912788 624.083191,53.734215 619.610474,47.104053 
	C610.824097,34.079590 585.671021,35.881321 579.804749,52.590443 
	C578.163940,57.264008 578.886230,62.861866 578.976624,68.027817 
	C579.139648,77.340294 589.988831,86.377686 598.994385,86.980385 
	C609.837769,87.706070 617.150024,82.585228 622.777344,73.012070 
M531.594116,60.868683 
	C530.623169,60.288467 529.718689,59.426483 528.669312,59.179066 
	C525.023926,58.319588 521.199158,58.043194 517.695557,56.820454 
	C515.219055,55.956188 512.912842,54.150970 511.069092,52.244949 
	C510.606323,51.766594 511.805817,48.813946 512.953064,47.819469 
	C515.587646,45.535831 526.901001,46.423664 528.638916,49.277088 
	C531.265930,53.590370 534.675171,53.450378 538.875854,52.498295 
	C538.925354,47.044407 535.775879,43.606697 531.792969,41.070717 
	C525.589539,37.120911 518.533875,38.799427 511.899963,39.334118 
	C506.892731,39.737705 502.131256,46.183685 501.564484,51.457348 
	C501.132233,55.479309 505.076233,61.356529 509.823608,62.952316 
	C514.696045,64.590157 519.825867,65.470528 524.677124,67.159142 
	C527.027527,67.977264 529.457520,69.530670 530.944336,71.452820 
	C531.670105,72.391060 530.932312,75.797775 529.800110,76.605209 
	C524.928406,80.079491 514.356934,81.224083 510.601349,72.987488 
	C508.739960,68.905136 505.434326,68.476578 500.630402,70.074638 
	C501.278320,72.395180 501.734528,74.676697 502.546661,76.823555 
	C505.754028,85.302322 519.933228,89.416824 530.067932,85.404968 
	C536.309875,82.934082 539.949951,79.103912 540.629272,72.849083 
	C541.274658,66.907310 537.301147,63.434799 531.594116,60.868683 
M258.067291,85.066170 
	C263.254425,88.245903 266.185272,86.600563 266.121704,79.931992 
	C266.034912,70.829819 265.618652,61.714554 264.900818,52.639927 
	C264.358459,45.783615 256.745789,38.759651 250.074539,39.053688 
	C244.608536,39.294605 239.185577,40.512363 233.406677,41.345669 
	C232.529633,36.915421 228.534866,39.189873 224.839554,39.396164 
	C224.839554,53.859779 224.851196,67.988579 224.828766,82.117325 
	C224.824753,84.645531 224.969711,86.706467 228.444855,86.696098 
	C231.966049,86.685593 233.066299,85.157036 233.008926,81.815155 
	C232.871872,73.831688 232.895370,65.842766 233.014603,57.858452 
	C233.111847,51.346348 238.424606,46.925411 245.818359,46.966560 
	C252.380539,47.003082 256.932495,51.268780 257.049622,57.682564 
	C257.213562,66.658669 257.256195,75.636993 258.067291,85.066170 
M290.802185,81.088852 
	C290.802185,69.855324 290.802185,58.621796 290.802185,47.325722 
	C294.568573,47.053822 297.612396,46.834080 300.167236,46.649643 
	C303.822144,35.701370 294.674347,40.305553 290.759918,38.277313 
	C290.759918,34.333736 290.570038,30.510834 290.813049,26.715649 
	C291.058411,22.884285 288.725830,22.874783 286.047455,22.886051 
	C283.417938,22.897116 280.985657,22.770712 281.197174,26.639406 
	C281.411926,30.567080 281.244568,34.515644 281.244568,38.677380 
	C278.163147,38.879456 275.753418,39.037483 273.293030,39.198830 
	C273.293030,41.915352 273.293030,44.284954 273.293030,46.724190 
	C276.116211,46.945099 278.517395,47.132980 281.226410,47.344955 
	C281.226410,58.951847 281.294739,70.078568 281.182526,81.203476 
	C281.151093,84.321274 282.263763,86.327240 285.380432,86.628273 
	C288.597107,86.938980 290.780945,85.619446 290.802185,81.088852 
M38.475979,40.178650 
	C38.007889,41.195652 37.145649,42.208141 37.133945,43.230373 
	C37.038635,51.553764 36.847607,59.891457 37.254364,68.196945 
	C37.398895,71.148140 38.717075,74.242142 40.183788,76.892220 
	C45.394054,86.306190 58.223019,87.473106 65.759010,82.512970 
	C67.483551,81.377892 69.053032,79.426979 71.015236,82.545357 
	C71.737450,83.693115 73.673912,84.076820 75.056519,84.809036 
	C75.676781,83.463318 76.818275,82.124451 76.836044,80.770821 
	C76.999962,68.285416 77.060249,55.796082 76.869690,43.312180 
	C76.848267,41.908405 75.317726,39.628586 74.090584,39.317173 
	C70.887634,38.504375 70.892540,41.164207 70.894089,43.407284 
	C70.899040,50.566753 70.964104,57.726788 70.895607,64.885551 
	C70.805466,74.306854 64.199837,79.564720 54.034626,79.096130 
	C46.872738,78.765984 43.641907,69.370300 43.519547,63.018845 
	C43.392303,56.413994 43.881294,49.798668 43.821552,43.190449 
	C43.796341,40.401421 42.651772,38.166866 38.475979,40.178650 
M563.026306,25.742676 
	C561.729553,20.229973 557.972290,24.058004 554.797363,23.069168 
	C554.797363,28.627201 554.797363,33.553265 554.797363,38.632912 
	C551.392456,38.908924 548.484863,39.144615 545.852234,39.358028 
	C542.664978,49.191616 550.704407,46.144684 554.973999,47.534428 
	C554.973999,49.609936 554.974915,51.420059 554.973816,53.230183 
	C554.968201,62.894848 554.887512,72.560669 555.038269,82.222893 
	C555.060303,83.636864 555.902466,85.928116 556.863098,86.230270 
	C558.330566,86.691833 560.605896,86.250687 561.829529,85.290054 
	C562.794739,84.532272 563.001709,82.416885 563.014282,80.900063 
	C563.106018,69.785645 563.063721,58.670113 563.063721,47.319241 
	C566.663330,47.067989 569.727539,46.854107 572.822266,46.638096 
	C572.822266,43.972607 572.822266,41.709522 572.822266,39.167767 
	C569.506042,39.020531 566.442932,38.884533 563.028992,38.732960 
	C563.028992,34.318993 563.028992,30.507181 563.026306,25.742676 
M308.969543,52.532890 
	C308.968079,62.354008 309.028870,72.175766 308.927765,81.995850 
	C308.896881,84.997459 309.629730,86.718048 313.072571,86.693604 
	C316.555084,86.668877 317.181213,84.830170 317.125397,81.892189 
	C317.018005,76.234947 317.058990,70.572784 317.148590,64.914398 
	C317.280670,56.573124 322.031982,48.941956 329.924988,47.461933 
	C336.127563,46.298882 334.696991,43.129715 334.529266,39.791496 
	C327.689575,36.387646 323.293854,42.660004 317.567383,43.491432 
	C317.163239,41.862720 316.854706,40.619320 316.564758,39.450752 
	C310.262848,38.915657 309.273132,39.740303 309.072388,45.554672 
	C309.003479,47.550529 309.003021,49.548752 308.969543,52.532890 
z"/>
<path fill="#5A5A5A" opacity="1.000000" stroke="none" 
	d="
M174.820663,79.222794 
	C164.909943,67.517036 166.827271,50.417099 178.850357,42.388939 
	C187.073471,36.898113 196.231857,37.064365 204.228012,41.645805 
	C211.614761,45.878098 215.555176,53.327641 215.132019,62.511806 
	C214.976761,65.881844 213.627914,66.777832 210.545456,66.727669 
	C201.882706,66.586708 193.216766,66.639526 184.552094,66.617867 
	C182.752121,66.613365 180.952118,66.617218 179.178482,66.617218 
	C178.838486,74.470108 188.902069,81.254265 195.855164,78.106216 
	C198.769821,76.786598 201.019485,74.008041 203.927277,72.660652 
	C206.706604,71.372795 209.947937,71.082001 213.799164,70.157860 
	C212.296646,77.861786 208.262665,82.318718 202.749176,84.692619 
	C192.620438,89.053673 183.131927,87.385056 174.820663,79.222794 
M184.575607,48.919575 
	C181.571899,50.724140 178.579910,52.536472 179.060852,57.047405 
	C187.766373,57.047405 196.191513,57.047405 204.574203,57.047405 
	C205.794388,49.791908 192.653656,43.682041 184.575607,48.919575 
z"/>
<path fill="#545454" opacity="1.000000" stroke="none" 
	d="
M433.391693,44.586548 
	C442.515808,53.643776 443.333740,64.324448 438.314270,73.907845 
	C430.582581,88.669556 417.897552,90.381065 403.078430,81.909790 
	C403.078430,89.535027 403.078430,95.941940 403.078430,102.733459 
	C400.225250,102.733459 397.839722,102.733459 395.133911,102.733459 
	C395.133911,81.698807 395.133911,60.652496 395.133911,39.626808 
	C401.727692,38.333321 402.081238,38.462330 403.651215,42.863483 
	C413.739410,37.671417 423.724731,35.901081 433.391693,44.586548 
M428.815338,73.268280 
	C431.899994,67.998695 433.941132,63.046341 431.289978,56.429119 
	C428.134735,48.553604 418.322998,44.074802 410.705719,48.026340 
	C404.283661,51.357841 402.653290,56.625225 402.835693,63.274807 
	C403.166016,75.316551 413.513123,82.077057 424.096252,76.916740 
	C425.674652,76.147118 427.058533,74.978653 428.815338,73.268280 
z"/>
<path fill="#C3D195" opacity="1.000000" stroke="none" 
	d="
M158.829193,70.972855 
	C158.827454,74.465424 159.322189,77.583984 158.639435,80.418983 
	C158.225662,82.137177 155.989258,83.416443 154.571716,84.892899 
	C153.430893,83.373260 151.376053,81.895546 151.304108,80.326881 
	C150.953323,72.678444 150.899673,64.996468 151.203522,57.344727 
	C151.415543,52.005283 147.893539,47.558971 142.530472,45.394810 
	C139.331512,44.103920 132.740936,47.020889 130.182022,51.013676 
	C129.280899,52.419754 128.981461,54.408195 128.949600,56.140701 
	C128.808746,63.802586 128.846024,71.468132 128.860382,79.132278 
	C128.865753,82.000000 128.504791,84.887039 124.909454,84.808075 
	C121.325165,84.729362 121.124619,81.767120 121.131081,78.949333 
	C121.147888,71.618515 121.197563,64.286469 121.088905,56.957066 
	C120.994987,50.621662 115.596649,44.843609 110.190628,45.070236 
	C103.898712,45.334003 98.990944,50.515110 98.915054,57.132538 
	C98.831009,64.462738 99.117119,71.809242 98.682617,79.115379 
	C98.565269,81.088493 96.589546,84.389359 95.171928,84.554855 
	C91.977554,84.927788 91.121071,82.034492 91.130730,79.057014 
	C91.167480,67.727394 90.984596,56.394253 91.246857,45.070835 
	C91.291710,43.134041 92.878471,41.025532 94.287155,39.484795 
	C94.608505,39.133316 97.108299,40.907585 98.677254,41.519314 
	C99.878624,41.987717 101.469482,42.794106 102.415253,42.377914 
	C114.115372,37.229153 117.037231,37.674339 125.416107,45.981682 
	C130.057434,43.605427 134.295425,40.182560 139.017593,39.272789 
	C149.611389,37.231812 158.225601,46.342533 158.819138,56.986145 
	C159.069168,61.470123 158.840485,65.980797 158.829193,70.972855 
z"/>
<path fill="#555555" opacity="1.000000" stroke="none" 
	d="
M342.563416,48.667107 
	C351.161438,34.808788 374.365265,35.402657 381.583038,49.421658 
	C383.717407,53.567162 384.151611,58.682133 384.758636,63.430351 
	C384.864014,64.254745 381.963806,66.308846 380.404572,66.360237 
	C371.762238,66.645111 363.105255,66.486198 354.453308,66.479851 
	C352.662903,66.478531 350.872498,66.479668 349.113159,66.479668 
	C348.749847,74.618118 359.762146,81.672134 366.721771,78.301201 
	C368.679321,77.353065 371.086365,76.431999 372.176147,74.769989 
	C374.943726,70.549217 378.595459,70.420441 383.288849,71.389061 
	C382.295624,76.550522 379.395081,80.246536 375.221313,83.077110 
	C365.011658,90.001083 351.187195,86.887566 344.059387,78.590775 
	C338.184021,71.751808 336.343445,57.486557 342.563416,48.667107 
M348.747925,54.742901 
	C347.672668,58.271366 350.202942,58.470654 352.467529,58.520306 
	C358.764404,58.658382 365.067352,58.720791 371.362183,58.571114 
	C372.580383,58.542152 374.394470,57.681538 374.802460,56.723042 
	C375.213654,55.756996 374.448242,54.060780 373.799133,52.909576 
	C369.191101,44.737034 354.042114,43.927929 348.747925,54.742901 
z"/>
<path fill="#575757" opacity="1.000000" stroke="none" 
	d="
M467.384003,86.909279 
	C454.580627,84.411934 444.397491,71.660599 448.700806,56.258709 
	C451.401367,46.593189 457.717865,39.683113 465.723358,38.975082 
	C480.667175,37.653412 488.011444,41.649529 492.274048,52.398876 
	C498.443604,67.957176 489.380951,88.687111 467.384003,86.909279 
M485.041351,58.842541 
	C484.294342,53.313442 479.883850,48.003242 475.272339,47.080700 
	C467.724152,45.570663 461.032959,47.660194 458.847168,53.844379 
	C457.131989,58.697071 456.613556,64.513893 457.448212,69.592667 
	C458.545624,76.270149 469.347107,79.985825 475.807037,77.465805 
	C484.325409,74.142799 485.627625,67.533073 485.041351,58.842541 
z"/>
<path fill="#575757" opacity="1.000000" stroke="none" 
	d="
M622.639954,73.388535 
	C617.150024,82.585228 609.837769,87.706070 598.994385,86.980385 
	C589.988831,86.377686 579.139648,77.340294 578.976624,68.027817 
	C578.886230,62.861866 578.163940,57.264008 579.804749,52.590443 
	C585.671021,35.881321 610.824097,34.079590 619.610474,47.104053 
	C624.083191,53.734215 626.904602,60.912788 623.385254,69.089851 
	C622.878845,70.266510 622.965271,71.698334 622.639954,73.388535 
M590.818665,73.607910 
	C595.968506,78.921310 600.349548,80.059578 605.611389,77.700516 
	C615.661011,73.194878 616.169861,68.309418 615.111145,57.798538 
	C614.618530,52.907089 609.763794,47.756287 605.299377,47.038609 
	C598.157471,45.890503 591.552185,48.251377 589.108643,53.085255 
	C585.650757,59.925926 585.542053,66.676964 590.818665,73.607910 
z"/>
<path fill="#575757" opacity="1.000000" stroke="none" 
	d="
M531.992432,60.914112 
	C537.301147,63.434799 541.274658,66.907310 540.629272,72.849083 
	C539.949951,79.103912 536.309875,82.934082 530.067932,85.404968 
	C519.933228,89.416824 505.754028,85.302322 502.546661,76.823555 
	C501.734528,74.676697 501.278320,72.395180 500.630402,70.074638 
	C505.434326,68.476578 508.739960,68.905136 510.601349,72.987488 
	C514.356934,81.224083 524.928406,80.079491 529.800110,76.605209 
	C530.932312,75.797775 531.670105,72.391060 530.944336,71.452820 
	C529.457520,69.530670 527.027527,67.977264 524.677124,67.159142 
	C519.825867,65.470528 514.696045,64.590157 509.823608,62.952316 
	C505.076233,61.356529 501.132233,55.479309 501.564484,51.457348 
	C502.131256,46.183685 506.892731,39.737705 511.899963,39.334118 
	C518.533875,38.799427 525.589539,37.120911 531.792969,41.070717 
	C535.775879,43.606697 538.925354,47.044407 538.875854,52.498295 
	C534.675171,53.450378 531.265930,53.590370 528.638916,49.277088 
	C526.901001,46.423664 515.587646,45.535831 512.953064,47.819469 
	C511.805817,48.813946 510.606323,51.766594 511.069092,52.244949 
	C512.912842,54.150970 515.219055,55.956188 517.695557,56.820454 
	C521.199158,58.043194 525.023926,58.319588 528.669312,59.179066 
	C529.718689,59.426483 530.623169,60.288467 531.992432,60.914112 
z"/>
<path fill="#555555" opacity="1.000000" stroke="none" 
	d="
M257.708984,84.840271 
	C257.256195,75.636993 257.213562,66.658669 257.049622,57.682564 
	C256.932495,51.268780 252.380539,47.003082 245.818359,46.966560 
	C238.424606,46.925411 233.111847,51.346348 233.014603,57.858452 
	C232.895370,65.842766 232.871872,73.831688 233.008926,81.815155 
	C233.066299,85.157036 231.966049,86.685593 228.444855,86.696098 
	C224.969711,86.706467 224.824753,84.645531 224.828766,82.117325 
	C224.851196,67.988579 224.839554,53.859779 224.839554,39.396164 
	C228.534866,39.189873 232.529633,36.915421 233.406677,41.345669 
	C239.185577,40.512363 244.608536,39.294605 250.074539,39.053688 
	C256.745789,38.759651 264.358459,45.783615 264.900818,52.639927 
	C265.618652,61.714554 266.034912,70.829819 266.121704,79.931992 
	C266.185272,86.600563 263.254425,88.245903 257.708984,84.840271 
z"/>
<path fill="#646464" opacity="1.000000" stroke="none" 
	d="
M290.801910,81.538208 
	C290.780945,85.619446 288.597107,86.938980 285.380432,86.628273 
	C282.263763,86.327240 281.151093,84.321274 281.182526,81.203476 
	C281.294739,70.078568 281.226410,58.951847 281.226410,47.344955 
	C278.517395,47.132980 276.116211,46.945099 273.293030,46.724190 
	C273.293030,44.284954 273.293030,41.915352 273.293030,39.198830 
	C275.753418,39.037483 278.163147,38.879456 281.244568,38.677380 
	C281.244568,34.515644 281.411926,30.567080 281.197174,26.639406 
	C280.985657,22.770712 283.417938,22.897116 286.047455,22.886051 
	C288.725830,22.874783 291.058411,22.884285 290.813049,26.715649 
	C290.570038,30.510834 290.759918,34.333736 290.759918,38.277313 
	C294.674347,40.305553 303.822144,35.701370 300.167236,46.649643 
	C297.612396,46.834080 294.568573,47.053822 290.802185,47.325722 
	C290.802185,58.621796 290.802185,69.855324 290.801910,81.538208 
z"/>
<path fill="#C0CE8F" opacity="1.000000" stroke="none" 
	d="
M38.781761,39.912750 
	C42.651772,38.166866 43.796341,40.401421 43.821552,43.190449 
	C43.881294,49.798668 43.392303,56.413994 43.519547,63.018845 
	C43.641907,69.370300 46.872738,78.765984 54.034626,79.096130 
	C64.199837,79.564720 70.805466,74.306854 70.895607,64.885551 
	C70.964104,57.726788 70.899040,50.566753 70.894089,43.407284 
	C70.892540,41.164207 70.887634,38.504375 74.090584,39.317173 
	C75.317726,39.628586 76.848267,41.908405 76.869690,43.312180 
	C77.060249,55.796082 76.999962,68.285416 76.836044,80.770821 
	C76.818275,82.124451 75.676781,83.463318 75.056519,84.809036 
	C73.673912,84.076820 71.737450,83.693115 71.015236,82.545357 
	C69.053032,79.426979 67.483551,81.377892 65.759010,82.512970 
	C58.223019,87.473106 45.394054,86.306190 40.183788,76.892220 
	C38.717075,74.242142 37.398895,71.148140 37.254364,68.196945 
	C36.847607,59.891457 37.038635,51.553764 37.133945,43.230373 
	C37.145649,42.208141 38.007889,41.195652 38.781761,39.912750 
z"/>
<path fill="#535353" opacity="1.000000" stroke="none" 
	d="
M563.027649,26.219021 
	C563.028992,30.507181 563.028992,34.318993 563.028992,38.732960 
	C566.442932,38.884533 569.506042,39.020531 572.822266,39.167767 
	C572.822266,41.709522 572.822266,43.972607 572.822266,46.638096 
	C569.727539,46.854107 566.663330,47.067989 563.063721,47.319241 
	C563.063721,58.670113 563.106018,69.785645 563.014282,80.900063 
	C563.001709,82.416885 562.794739,84.532272 561.829529,85.290054 
	C560.605896,86.250687 558.330566,86.691833 556.863098,86.230270 
	C555.902466,85.928116 555.060303,83.636864 555.038269,82.222893 
	C554.887512,72.560669 554.968201,62.894848 554.973816,53.230183 
	C554.974915,51.420059 554.973999,49.609936 554.973999,47.534428 
	C550.704407,46.144684 542.664978,49.191616 545.852234,39.358028 
	C548.484863,39.144615 551.392456,38.908924 554.797363,38.632912 
	C554.797363,33.553265 554.797363,28.627201 554.797363,23.069168 
	C557.972290,24.058004 561.729553,20.229973 563.027649,26.219021 
z"/>
<path fill="#575757" opacity="1.000000" stroke="none" 
	d="
M308.970398,52.039391 
	C309.003021,49.548752 309.003479,47.550529 309.072388,45.554672 
	C309.273132,39.740303 310.262848,38.915657 316.564758,39.450752 
	C316.854706,40.619320 317.163239,41.862720 317.567383,43.491432 
	C323.293854,42.660004 327.689575,36.387646 334.529266,39.791496 
	C334.696991,43.129715 336.127563,46.298882 329.924988,47.461933 
	C322.031982,48.941956 317.280670,56.573124 317.148590,64.914398 
	C317.058990,70.572784 317.018005,76.234947 317.125397,81.892189 
	C317.181213,84.830170 316.555084,86.668877 313.072571,86.693604 
	C309.629730,86.718048 308.896881,84.997459 308.927765,81.995850 
	C309.028870,72.175766 308.968079,62.354008 308.970398,52.039391 
z"/>
<path fill="#F2F2F2" opacity="1.000000" stroke="none" 
	d="
M184.924149,48.745331 
	C192.653656,43.682041 205.794388,49.791908 204.574203,57.047405 
	C196.191513,57.047405 187.766373,57.047405 179.060852,57.047405 
	C178.579910,52.536472 181.571899,50.724140 184.924149,48.745331 
z"/>
<path fill="#F2F2F2" opacity="1.000000" stroke="none" 
	d="
M428.673889,73.631485 
	C427.058533,74.978653 425.674652,76.147118 424.096252,76.916740 
	C413.513123,82.077057 403.166016,75.316551 402.835693,63.274807 
	C402.653290,56.625225 404.283661,51.357841 410.705719,48.026340 
	C418.322998,44.074802 428.134735,48.553604 431.289978,56.429119 
	C433.941132,63.046341 431.899994,67.998695 428.673889,73.631485 
z"/>
<path fill="#E5E5E5" opacity="1.000000" stroke="none" 
	d="
M348.845398,54.414375 
	C354.042114,43.927929 369.191101,44.737034 373.799133,52.909576 
	C374.448242,54.060780 375.213654,55.756996 374.802460,56.723042 
	C374.394470,57.681538 372.580383,58.542152 371.362183,58.571114 
	C365.067352,58.720791 358.764404,58.658382 352.467529,58.520306 
	C350.202942,58.470654 347.672668,58.271366 348.845398,54.414375 
z"/>
<path fill="#F4F4F4" opacity="1.000000" stroke="none" 
	d="
M485.076599,59.286659 
	C485.627625,67.533073 484.325409,74.142799 475.807037,77.465805 
	C469.347107,79.985825 458.545624,76.270149 457.448212,69.592667 
	C456.613556,64.513893 457.131989,58.697071 458.847168,53.844379 
	C461.032959,47.660194 467.724152,45.570663 475.272339,47.080700 
	C479.883850,48.003242 484.294342,53.313442 485.076599,59.286659 
z"/>
<path fill="#F2F2F2" opacity="1.000000" stroke="none" 
	d="
M590.524658,73.358604 
	C585.542053,66.676964 585.650757,59.925926 589.108643,53.085255 
	C591.552185,48.251377 598.157471,45.890503 605.299377,47.038609 
	C609.763794,47.756287 614.618530,52.907089 615.111145,57.798538 
	C616.169861,68.309418 615.661011,73.194878 605.611389,77.700516 
	C600.349548,80.059578 595.968506,78.921310 590.524658,73.358604 
z"/>
</svg>